<?xml version="1.0" encoding="iso-8859-1"?>
<!-- Uploaded to: SVG Repo, www.svgrepo.com, Generator: SVG Repo Mixer Tools -->
<svg version="1.1" id="Layer_1" xmlns="http://www.w3.org/2000/svg" xmlns:xlink="http://www.w3.org/1999/xlink" 
	 viewBox="0 0 512 512" xml:space="preserve">
<path style="fill:#EE2712;" d="M256,401.944c9.588,16.496,27.438,27.595,47.891,27.595H512V110.056H0v319.483h208.109
	C228.562,429.539,246.412,418.44,256,401.944"/>
<path style="fill:#FF5D3D;" d="M256.001,110.056H0v319.483h208.109c20.454,0,38.304-11.099,47.891-27.595c0,0,0,0.001,0.001,0.001
	V110.056z"/>
<path style="fill:#F7EE00;" d="M303.891,82.461c-20.453,0-38.304,11.099-47.891,27.594c-9.588-16.496-27.438-27.594-47.891-27.594
	H44.353V374.35h163.756c20.454,0,38.304,11.099,47.891,27.594c9.588-16.495,27.438-27.594,47.891-27.594h163.756V82.461H303.891z"/>
<path style="fill:#FFFC99;" d="M208.109,82.461H44.353V374.35h163.756c20.454,0,38.304,11.099,47.891,27.594V110.055
	C246.412,93.56,228.562,82.461,208.109,82.461z"/>
<rect x="91.69" y="131.887" style="fill:#0BAEBC;" width="116.976" height="31.347"/>
<g>
	<rect x="303.334" y="131.887" style="fill:#088690;" width="116.976" height="31.347"/>
	<rect x="303.334" y="185.783" style="fill:#088690;" width="116.976" height="31.347"/>
	<rect x="303.334" y="239.679" style="fill:#088690;" width="116.976" height="31.347"/>
	<rect x="303.334" y="293.575" style="fill:#088690;" width="116.976" height="31.347"/>
	<path style="fill:#088690;" d="M165.849,208.821v-24.293h-31.347v24.293c-29.241,3.061-52.111,27.854-52.111,57.892
		c0,32.099,26.114,58.213,58.213,58.213h19.144c32.098,0,58.212-26.114,58.212-58.213
		C217.96,236.674,195.091,211.88,165.849,208.821z"/>
</g>
<path style="fill:#0BAEBC;" d="M150.176,184.528h-15.673v24.293c-29.241,3.061-52.111,27.854-52.111,57.892
	c0,32.099,26.114,58.213,58.213,58.213h9.571V184.528z"/>
</svg>